<svg xmlns="http://www.w3.org/2000/svg" xmlns:xlink="http://www.w3.org/1999/xlink" version="1.0" x="0" y="0" width="2400" height="3877.4013487611046" viewBox="152.66575862884523 96.99507381439209 34.66848655700684 56.009848556518556" preserveAspectRatio="xMidYMid meet" color-interpolation-filters="sRGB">
    <g><defs><linearGradient id="92" x1="0%" y1="0%" x2="100%" y2="0%"><stop offset="0%" stopColor="#fa71cd"></stop> <stop offset="100%" stopColor="#9b59b6"></stop></linearGradient><linearGradient id="93" x1="0%" y1="0%" x2="100%" y2="0%"><stop offset="0%" stopColor="#f9d423"></stop> <stop offset="100%" stopColor="#f83600"></stop></linearGradient><linearGradient id="94" x1="0%" y1="0%" x2="100%" y2="0%"><stop offset="0%" stopColor="#0064d2"></stop> <stop offset="100%" stopColor="#1cb0f6"></stop></linearGradient><linearGradient id="95" x1="0%" y1="0%" x2="100%" y2="0%"><stop offset="0%" stopColor="#f00978"></stop> <stop offset="100%" stopColor="#3f51b1"></stop></linearGradient><linearGradient id="96" x1="0%" y1="0%" x2="100%" y2="0%"><stop offset="0%" stopColor="#7873f5"></stop> <stop offset="100%" stopColor="#ec77ab"></stop></linearGradient><linearGradient id="97" x1="0%" y1="0%" x2="100%" y2="0%"><stop offset="0%" stopColor="#f9d423"></stop> <stop offset="100%" stopColor="#e14fad"></stop></linearGradient><linearGradient id="98" x1="0%" y1="0%" x2="100%" y2="0%"><stop offset="0%" stopColor="#009efd"></stop> <stop offset="100%" stopColor="#2af598"></stop></linearGradient><linearGradient id="99" x1="0%" y1="0%" x2="100%" y2="0%"><stop offset="0%" stopColor="#ffcc00"></stop> <stop offset="100%" stopColor="#00b140"></stop></linearGradient><linearGradient id="100" x1="0%" y1="0%" x2="100%" y2="0%"><stop offset="0%" stopColor="#d51007"></stop> <stop offset="100%" stopColor="#ff8177"></stop></linearGradient><linearGradient id="102" x1="0%" y1="0%" x2="100%" y2="0%"><stop offset="0%" stopColor="#a2b6df"></stop> <stop offset="100%" stopColor="#0c3483"></stop></linearGradient><linearGradient id="103" x1="0%" y1="0%" x2="100%" y2="0%"><stop offset="0%" stopColor="#7ac5d8"></stop> <stop offset="100%" stopColor="#eea2a2"></stop></linearGradient><linearGradient id="104" x1="0%" y1="0%" x2="100%" y2="0%"><stop offset="0%" stopColor="#00ecbc"></stop> <stop offset="100%" stopColor="#007adf"></stop></linearGradient><linearGradient id="105" x1="0%" y1="0%" x2="100%" y2="0%"><stop offset="0%" stopColor="#b88746"></stop> <stop offset="100%" stopColor="#fdf5a6"></stop></linearGradient></defs><g class="imagesvg isNoFont" transform="translate(153.0056438446045,97.33496284484863)"><g><rect fill="#333333" fillOpacity="0" strokeWidth="2" x="0" y="0" width="33.988711362035" height="55.330074333026744" class="image-rect"></rect> <svg x="0" y="0" width="33.988711362035" height="55.330074333026744" filtersec="colorsb2169638434" class="image-svg-svg primary" style="overflow: visible;"><svg xmlns="http://www.w3.org/2000/svg" viewBox="0 0 8.600000381469727 14"><path d="M7 3.2H2.22a1.6 1.6 0 0 1 0-3.2H7a1.6 1.6 0 1 1 0 3.2z" fill="#1eadef"></path><path d="M1.6 14a1.6 1.6 0 0 1 0-3.2 3.8 3.8 0 0 0 3.76-3.48V1.65a1.6 1.6 0 0 1 3.2 0v5.89a6.93 6.93 0 0 1-2.21 4.55A7 7 0 0 1 1.6 14zm3.76-6.72z" fill="#f1511b"></path></svg></svg> </g></g><defs v-gra="od"></defs></g>
</svg>